<svg xmlns="http://www.w3.org/2000/svg" version="1.1" xmlns:xlink="http://www.w3.org/1999/xlink" xmlns:svgjs="http://svgjs.com/svgjs" width="125" height="125" preserveAspectRatio="none" viewBox="0 0 125 125"><g mask="url(&quot;#SvgjsMask6673&quot;)" fill="none"><rect width="125" height="125" x="0" y="0" fill="rgba(255, 255, 255, 1)"></rect><circle r="19.04350027532315" cx="79.35" cy="86.5" stroke="rgba(81, 237, 239, 1)" stroke-width="1" stroke-dasharray="2, 2"></circle><rect width="60" height="60" clip-path="url(&quot;#SvgjsClipPath6674&quot;)" x="-2" y="21.18" fill="url(#SvgjsPattern6675)" transform="rotate(53.68, 28, 51.18)"></rect><path d="M30.44 125.32a5.6 5.6 0 1 0-10.15-4.74 5.6 5.6 0 1 0 10.15 4.74zM15.94 118.55a5.6 5.6 0 1 0-10.14-4.74 5.6 5.6 0 1 0 10.14 4.74zM1.45 111.78a5.6 5.6 0 1 0-10.15-4.74 5.6 5.6 0 1 0 10.15 4.74zM-13.05 105.01a5.6 5.6 0 1 0-10.15-4.74 5.6 5.6 0 1 0 10.15 4.74z" fill="rgba(223, 209, 209, 1)"></path><path d="M59.85 61.8L61.74 49.13 74.51 48.19 76.39 35.52 89.17 34.58 91.05 21.92 103.82 20.98" stroke="rgba(223, 209, 209, 1)" stroke-width="1.21"></path><path d="M70.71 113.05L58.38 116.5 52.3 105.23 39.97 108.68 33.9 97.4 21.56 100.85 15.49 89.58M73.84 105.69L61.51 109.14 55.43 97.87 43.1 101.32 37.03 90.04 24.69 93.49 18.62 82.22M76.97 98.33L64.64 101.78 58.56 90.5 46.23 93.95 40.16 82.68 27.82 86.13 21.75 74.86" stroke="rgba(223, 209, 209, 1)" stroke-width="1.98"></path></g><defs><mask id="SvgjsMask6673"><rect width="125" height="125" fill="#ffffff"></rect></mask><pattern x="0" y="0" width="6" height="6" patternUnits="userSpaceOnUse" id="SvgjsPattern6675"><path d="M3 1L3 5M1 3L5 3" stroke="rgba(223, 209, 209, 1)" fill="none" stroke-width="1"></path></pattern><clipPath id="SvgjsClipPath6674"><circle r="15" cx="28" cy="51.18"></circle></clipPath></defs></svg>